# xmcd
#
# Track frame offsets:
#	150
#	13591
#	26497
#	38558
#	50660
#	61797
#	72329
#	85325
#	108290
#	121433
#	131629
#
# Disc length: 1910 seconds
#
# Revision: 1
# Processed by: cddbd v1.5.2PL0 Copyright (c) Steve Scherf et al.
# Submitted via: audiograbber 1.83.01
#
DISCID=8e07740b
DTITLE=Clarence Carter - Testifyin'
DYEAR=1969
DGENRE=Soul
TTITLE0=Bad News
TTITLE1=Snatching It Back
TTITLE2=Soul Deep
TTITLE3=I Smell A Rat
TTITLE4=Doin' Our Thing
TTITLE5=You Can't Miss What You Can't Measure
TTITLE6=Instant Reaction
TTITLE7=Making Love (At The Dark End Of The Street)
TTITLE8=The Feeling Is Right
TTITLE9=Back Door Santa
TTITLE10=I Can't Do Without You
EXTD=
EXTT0=
EXTT1=
EXTT2=
EXTT3=
EXTT4=
EXTT5=
EXTT6=
EXTT7=
EXTT8=
EXTT9=
EXTT10=
PLAYORDER=
